<svg xmlns="http://www.w3.org/2000/svg" viewBox="0 0 800 400" fill="none">
  <defs>
    <linearGradient id="bg" x1="0" y1="0" x2="800" y2="400" gradientUnits="userSpaceOnUse">
      <stop offset="0%" stop-color="#0f172a"/>
      <stop offset="100%" stop-color="#1e293b"/>
    </linearGradient>
    <linearGradient id="accent" x1="0" y1="0" x2="1" y2="1">
      <stop offset="0%" stop-color="#38bdf8"/>
      <stop offset="100%" stop-color="#818cf8"/>
    </linearGradient>
    <linearGradient id="accent2" x1="0" y1="0" x2="1" y2="1">
      <stop offset="0%" stop-color="#818cf8"/>
      <stop offset="100%" stop-color="#c084fc"/>
    </linearGradient>
    <linearGradient id="line1" x1="0" y1="0" x2="1" y2="1">
      <stop offset="0%" stop-color="#38bdf8" stop-opacity="0.6"/>
      <stop offset="100%" stop-color="#818cf8" stop-opacity="0.6"/>
    </linearGradient>
    <linearGradient id="line2" x1="0" y1="0" x2="1" y2="1">
      <stop offset="0%" stop-color="#818cf8" stop-opacity="0.4"/>
      <stop offset="100%" stop-color="#c084fc" stop-opacity="0.4"/>
    </linearGradient>
    <filter id="glow">
      <feGaussianBlur stdDeviation="3" result="blur"/>
      <feMerge>
        <feMergeNode in="blur"/>
        <feMergeNode in="SourceGraphic"/>
      </feMerge>
    </filter>
    <filter id="glow-strong">
      <feGaussianBlur stdDeviation="6" result="blur"/>
      <feMerge>
        <feMergeNode in="blur"/>
        <feMergeNode in="SourceGraphic"/>
      </feMerge>
    </filter>
    <!-- Node symbol: hexagonal cluster icon -->
    <symbol id="node-parent" viewBox="0 0 40 40">
      <polygon points="20,2 36,11 36,29 20,38 4,29 4,11" fill="none" stroke="url(#accent)" stroke-width="2"/>
      <polygon points="20,8 30,13.5 30,26.5 20,32 10,26.5 10,13.5" fill="url(#accent)" fill-opacity="0.15"/>
      <circle cx="20" cy="20" r="4" fill="url(#accent)"/>
    </symbol>
    <symbol id="node-child" viewBox="0 0 32 32">
      <polygon points="16,2 29,9 29,23 16,30 3,23 3,9" fill="none" stroke="url(#accent2)" stroke-width="1.5"/>
      <polygon points="16,7 25,12 25,22 16,27 7,22 7,12" fill="url(#accent2)" fill-opacity="0.12"/>
      <circle cx="16" cy="16" r="3" fill="url(#accent2)"/>
    </symbol>
  </defs>

  <!-- Background -->
  <rect width="800" height="400" fill="url(#bg)" rx="16"/>

  <!-- Subtle grid lattice pattern in background -->
  <g opacity="0.07" stroke="#38bdf8" stroke-width="0.5">
    <!-- Vertical lines -->
    <line x1="80" y1="0" x2="80" y2="400"/>
    <line x1="160" y1="0" x2="160" y2="400"/>
    <line x1="240" y1="0" x2="240" y2="400"/>
    <line x1="320" y1="0" x2="320" y2="400"/>
    <line x1="400" y1="0" x2="400" y2="400"/>
    <line x1="480" y1="0" x2="480" y2="400"/>
    <line x1="560" y1="0" x2="560" y2="400"/>
    <line x1="640" y1="0" x2="640" y2="400"/>
    <line x1="720" y1="0" x2="720" y2="400"/>
    <!-- Horizontal lines -->
    <line x1="0" y1="80" x2="800" y2="80"/>
    <line x1="0" y1="160" x2="800" y2="160"/>
    <line x1="0" y1="240" x2="800" y2="240"/>
    <line x1="0" y1="320" x2="800" y2="320"/>
    <!-- Diagonals -->
    <line x1="0" y1="0" x2="400" y2="400"/>
    <line x1="400" y1="0" x2="800" y2="400"/>
    <line x1="0" y1="400" x2="400" y2="0"/>
    <line x1="400" y1="400" x2="800" y2="0"/>
  </g>

  <!-- Connection lines (drawn first, behind nodes) -->
  <g filter="url(#glow)">
    <!-- Parent to child connections -->
    <line x1="190" y1="135" x2="90" y2="210" stroke="url(#line1)" stroke-width="2" stroke-dasharray="6,4"/>
    <line x1="190" y1="135" x2="195" y2="210" stroke="url(#line1)" stroke-width="2" stroke-dasharray="6,4"/>
    <line x1="190" y1="135" x2="300" y2="210" stroke="url(#line1)" stroke-width="2" stroke-dasharray="6,4"/>

    <!-- Animated data flow dots on connections -->
    <circle r="2.5" fill="#38bdf8" opacity="0.9">
      <animateMotion dur="2.5s" repeatCount="indefinite" path="M190,135 L90,210"/>
    </circle>
    <circle r="2.5" fill="#38bdf8" opacity="0.9">
      <animateMotion dur="3s" repeatCount="indefinite" path="M190,135 L195,210"/>
    </circle>
    <circle r="2.5" fill="#38bdf8" opacity="0.9">
      <animateMotion dur="2.8s" repeatCount="indefinite" path="M190,135 L300,210"/>
    </circle>

    <!-- prod-1 to its children -->
    <line x1="90" y1="235" x2="60" y2="310" stroke="url(#line2)" stroke-width="1.5" stroke-dasharray="4,4"/>
    <line x1="90" y1="235" x2="120" y2="310" stroke="url(#line2)" stroke-width="1.5" stroke-dasharray="4,4"/>

    <circle r="2" fill="#c084fc" opacity="0.8">
      <animateMotion dur="2s" repeatCount="indefinite" path="M90,235 L60,310"/>
    </circle>
    <circle r="2" fill="#c084fc" opacity="0.8">
      <animateMotion dur="2.3s" repeatCount="indefinite" path="M90,235 L120,310"/>
    </circle>

    <!-- staging to its children -->
    <line x1="300" y1="235" x2="270" y2="310" stroke="url(#line2)" stroke-width="1.5" stroke-dasharray="4,4"/>
    <line x1="300" y1="235" x2="330" y2="310" stroke="url(#line2)" stroke-width="1.5" stroke-dasharray="4,4"/>

    <circle r="2" fill="#c084fc" opacity="0.8">
      <animateMotion dur="2.2s" repeatCount="indefinite" path="M300,235 L270,310"/>
    </circle>
    <circle r="2" fill="#c084fc" opacity="0.8">
      <animateMotion dur="2.6s" repeatCount="indefinite" path="M300,235 L330,310"/>
    </circle>
  </g>

  <!-- Pivot arc arrows (showing self-management) -->
  <g opacity="0.35">
    <path d="M 105 225 A 18 18 0 1 1 77 225" fill="none" stroke="#38bdf8" stroke-width="1"/>
    <polygon points="77,225 81,219 73,221" fill="#38bdf8"/>
    <path d="M 210 225 A 18 18 0 1 1 182 225" fill="none" stroke="#38bdf8" stroke-width="1"/>
    <polygon points="182,225 186,219 178,221" fill="#38bdf8"/>
    <path d="M 315 225 A 18 18 0 1 1 287 225" fill="none" stroke="#818cf8" stroke-width="1"/>
    <polygon points="287,225 291,219 283,221" fill="#818cf8"/>
  </g>

  <!-- Cluster nodes -->
  <!-- Root parent -->
  <use href="#node-parent" x="168" y="100" width="44" height="44" filter="url(#glow-strong)"/>
  <text x="190" y="92" text-anchor="middle" font-family="monospace" font-size="10" fill="#94a3b8" font-weight="600">MGMT</text>

  <!-- Children: prod-1 is a parent, prod-2 is leaf, staging is a parent -->
  <use href="#node-parent" x="71" y="200" width="38" height="38" filter="url(#glow)"/>
  <text x="90" y="248" text-anchor="middle" font-family="monospace" font-size="9" fill="#94a3b8">prod</text>

  <use href="#node-child" x="178" y="205" width="34" height="34" filter="url(#glow)"/>
  <text x="195" y="252" text-anchor="middle" font-family="monospace" font-size="9" fill="#94a3b8">edge</text>

  <use href="#node-parent" x="281" y="200" width="38" height="38" filter="url(#glow)"/>
  <text x="300" y="248" text-anchor="middle" font-family="monospace" font-size="9" fill="#94a3b8">staging</text>

  <!-- prod children -->
  <use href="#node-child" x="44" y="300" width="30" height="30" filter="url(#glow)"/>
  <text x="59" y="342" text-anchor="middle" font-family="monospace" font-size="8" fill="#64748b">us-west</text>

  <use href="#node-child" x="106" y="300" width="30" height="30" filter="url(#glow)"/>
  <text x="121" y="342" text-anchor="middle" font-family="monospace" font-size="8" fill="#64748b">us-east</text>

  <!-- staging children -->
  <use href="#node-child" x="255" y="300" width="30" height="30" filter="url(#glow)"/>
  <text x="270" y="342" text-anchor="middle" font-family="monospace" font-size="8" fill="#64748b">dev-1</text>

  <use href="#node-child" x="315" y="300" width="30" height="30" filter="url(#glow)"/>
  <text x="330" y="342" text-anchor="middle" font-family="monospace" font-size="8" fill="#64748b">dev-2</text>

  <!-- Divider line -->
  <line x1="390" y1="40" x2="390" y2="360" stroke="#334155" stroke-width="1" stroke-dasharray="2,6"/>

  <!-- Right side: Logo and text -->
  <g transform="translate(595, 100)">
    <!-- Lattice logo mark: interlocking diamond grid -->
    <g filter="url(#glow-strong)" transform="translate(0, -10)">
      <polygon points="0,-36 36,0 0,36 -36,0" fill="none" stroke="#38bdf8" stroke-width="2.5"/>
      <polygon points="0,-20 20,0 0,20 -20,0" fill="url(#accent)" fill-opacity="0.2" stroke="#818cf8" stroke-width="1.5"/>
      <circle cx="0" cy="0" r="5" fill="url(#accent)"/>
      <!-- Corner dots -->
      <circle cx="0" cy="-36" r="3" fill="#38bdf8"/>
      <circle cx="36" cy="0" r="3" fill="#38bdf8"/>
      <circle cx="0" cy="36" r="3" fill="#38bdf8"/>
      <circle cx="-36" cy="0" r="3" fill="#38bdf8"/>
      <!-- Inner corner dots -->
      <circle cx="0" cy="-20" r="2" fill="#818cf8"/>
      <circle cx="20" cy="0" r="2" fill="#818cf8"/>
      <circle cx="0" cy="20" r="2" fill="#818cf8"/>
      <circle cx="-20" cy="0" r="2" fill="#818cf8"/>
      <!-- Connecting lines from inner to outer -->
      <line x1="0" y1="-20" x2="0" y2="-36" stroke="#38bdf8" stroke-width="0.8" opacity="0.5"/>
      <line x1="20" y1="0" x2="36" y2="0" stroke="#38bdf8" stroke-width="0.8" opacity="0.5"/>
      <line x1="0" y1="20" x2="0" y2="36" stroke="#38bdf8" stroke-width="0.8" opacity="0.5"/>
      <line x1="-20" y1="0" x2="-36" y2="0" stroke="#38bdf8" stroke-width="0.8" opacity="0.5"/>
    </g>
  </g>

  <!-- Title text -->
  <text x="595" y="175" text-anchor="middle" font-family="system-ui, -apple-system, sans-serif" font-size="42" font-weight="700" fill="white" letter-spacing="4">LATTICE</text>

  <!-- Tagline -->
  <text x="595" y="205" text-anchor="middle" font-family="monospace" font-size="12" fill="#64748b">self-managing kubernetes clusters</text>

  <!-- Feature pills -->
  <g transform="translate(595, 235)">
    <rect x="-160" y="0" width="96" height="24" rx="12" fill="#38bdf8" fill-opacity="0.1" stroke="#38bdf8" stroke-opacity="0.3" stroke-width="1"/>
    <text x="-112" y="16" text-anchor="middle" font-family="monospace" font-size="10" fill="#38bdf8">zero-trust</text>

    <rect x="-54" y="0" width="108" height="24" rx="12" fill="#818cf8" fill-opacity="0.1" stroke="#818cf8" stroke-opacity="0.3" stroke-width="1"/>
    <text x="0" y="16" text-anchor="middle" font-family="monospace" font-size="10" fill="#818cf8">self-managing</text>

    <rect x="64" y="0" width="96" height="24" rx="12" fill="#c084fc" fill-opacity="0.1" stroke="#c084fc" stroke-opacity="0.3" stroke-width="1"/>
    <text x="112" y="16" text-anchor="middle" font-family="monospace" font-size="10" fill="#c084fc">multi-cluster</text>
  </g>

  <!-- Feature list -->
  <g font-family="monospace" font-size="11" fill="#94a3b8">
    <text x="483" y="296"><tspan fill="#38bdf8">></tspan> outbound-only gRPC</text>
    <text x="483" y="316"><tspan fill="#818cf8">></tspan> CAPI pivot architecture</text>
    <text x="483" y="336"><tspan fill="#c084fc">></tspan> bilateral service mesh</text>
    <text x="483" y="356"><tspan fill="#22d3ee">></tspan> FIPS 140-2 cryptography</text>
  </g>

  <!-- Pulsing ring on root parent node -->
  <circle cx="190" cy="122" r="26" fill="none" stroke="#38bdf8" stroke-width="0.8" opacity="0">
    <animate attributeName="r" values="26;40" dur="3s" repeatCount="indefinite"/>
    <animate attributeName="opacity" values="0.5;0" dur="3s" repeatCount="indefinite"/>
  </circle>
</svg>
